<svg xmlns="http://www.w3.org/2000/svg" width="800" height="600" viewBox="0 0 800 600" role="img" aria-label="Oil & Ghee">
  <rect width="800" height="600" rx="32" fill="#ffffff"/>
  <g fill="none" stroke="#14774e" stroke-width="18" stroke-linecap="round" stroke-linejoin="round">
    <path d="M330 170h140l20 70v230c0 30-24 54-54 54H364c-30 0-54-24-54-54V240l20-70z"/>
    <path d="M350 170v70h100v-70"/>
    <path d="M360 310h120"/>
  </g>
  <path d="M400 280c40 55 80 95 80 140 0 45-36 80-80 80s-80-35-80-80c0-45 40-85 80-140z" fill="none" stroke="#e0c952" stroke-width="18"/>
  <text x="400" y="540" text-anchor="middle" font-family="Arial, Helvetica, sans-serif" font-size="44" fill="#14774e" font-weight="700">Oil &amp; Ghee</text>
</svg>
